# xmcd CD database file generated by OrangeCD 5.2
#
# Track frame offsets:
#	150
#	21421
#	39521
#	56977
#	76511
#	95314
#	111887
#	123127
#	141991
#	163968
#	178290
#	190911
#	213213
#	228414
#
# Disc length: 3228 seconds
#
# Revision: 0
# Processed by: cddbd v1.5.1PL0 Copyright (c) Steve Scherf et al.
# Submitted via: OrangeCD 5.2
#
DISCID=c00c9a0e
DTITLE=Various Artist - A Brief History Of The Blues   Rollin' And Tumblin
DYEAR=2005
DGENRE=Blues Compilation
TTITLE0=Buddy Guy - Mustang Sally
TTITLE1=Stevie Ray Vaughan - Cold Shot
TTITLE2=Muddy Waters - I'm A King Bee
TTITLE3=Willie Dixon - You Shook Me
TTITLE4=Etta James - Spoonful
TTITLE5=Taj Mahal - She Caught The Katy
TTITLE6=Robert Johnson - Cross Road Blues
TTITLE7=The Electric Flag - Kiling Floor
TTITLE8=The Jeff Beck Group - I Ain't Superstitious
TTITLE9=Mempis Minnie and Kansas Joe McCoy  - When The Levee Breaks
TTITLE10=Elmore James - The Sky Is Crying
TTITLE11=Son House - Death Letter Blues
TTITLE12=Louis Armstrong - St. James Infirmary
TTITLE13=Leadbelly - The Midnight Special
EXTD=
EXTT0=
EXTT1=
EXTT2=
EXTT3=
EXTT4=
EXTT5=
EXTT6=
EXTT7=
EXTT8=
EXTT9=
EXTT10=
EXTT11=
EXTT12=
EXTT13=
PLAYORDER=
